# xmcd
#
# Track frame offsets:
#	150
#	12232
#	24705
#	40930
#	52170
#	69067
#	78517
#	92602
#	105492
#	117740
#	130472
#	143155
#
# Disc length: 2051 seconds
#
# Revision: 0
# Processed by: cddbd v1.5.2PL0 Copyright (c) Steve Scherf et al.
# Submitted via: EasyCDDAExtractor 11.1.0.1
#
DISCID=a208010c
DTITLE=Country Lise
DYEAR=1900
DGENRE=country
TTITLE0=Dans med mig min ven
TTITLE1=HVis du spør' nu
TTITLE2=En ensom gammel cowboy
TTITLE3=Vi er sammen igen
TTITLE4=En at elske
TTITLE5=Cowboy dans med mig natten lang
TTITLE6=Hej kom nu med
TTITLE7=Tjambalaya
TTITLE8=Du er en ener for mig
TTITLE9=Du er min allerbedste ven
TTITLE10=Send mig hjem til Texas
TTITLE11=Til fest i by'n
EXTD=
EXTT0=
EXTT1=
EXTT2=
EXTT3=
EXTT4=
EXTT5=
EXTT6=
EXTT7=
EXTT8=
EXTT9=
EXTT10=
EXTT11=
PLAYORDER=
